# xmcd
# Copyright (C) 1995-1998 Ti Kan
#
# Track frame offsets:
#       150
#       69751
#       133691
#       190415
#
# Disc length: 3572 seconds
#
# Revision: 0
# Processed by: cddbd v1.5.2PL0 Copyright (c) Steve Scherf et al.
# Submitted via: CD-Transfer v1.0
#
DISCID=320df204
DTITLE=Friday Night Life Mixed By Dj U.r.s. - 
DYEAR=1900
DGENRE=
TTITLE0=Poppies
TTITLE1=Rnb
TTITLE2=173bpm
TTITLE3=House
EXTD=
EXTT0=
EXTT1=
EXTT2=
EXTT3=
PLAYORDER=
